<mxfile host="app.diagrams.net" modified="2024-04-05T09:52:41.462Z" agent="Mozilla/5.0 (Windows NT 10.0; Win64; x64) AppleWebKit/537.36 (KHTML, like Gecko) Chrome/123.0.0.0 Safari/537.36" etag="vI0zuw75Un9SPsYlswbo" version="24.1.0" type="github" pages="4">
  <diagram name="Page-1" id="qdEc8dJj3-rpdnDieWZV">
    <mxGraphModel dx="1461" dy="759" grid="1" gridSize="10" guides="1" tooltips="1" connect="1" arrows="1" fold="1" page="1" pageScale="1" pageWidth="827" pageHeight="1169" math="0" shadow="0">
      <root>
        <mxCell id="0" />
        <mxCell id="1" parent="0" />
        <mxCell id="u94LQi-UwwyeZnvFN672-9" value="" style="edgeStyle=none;curved=1;rounded=0;orthogonalLoop=1;jettySize=auto;html=1;fontSize=12;startSize=8;endSize=8;" parent="1" source="FwbbOLDOYsbX4LEcrooZ-1" target="u94LQi-UwwyeZnvFN672-7" edge="1">
          <mxGeometry relative="1" as="geometry" />
        </mxCell>
        <mxCell id="FwbbOLDOYsbX4LEcrooZ-1" value="Start" style="ellipse;whiteSpace=wrap;html=1;" parent="1" vertex="1">
          <mxGeometry x="330" y="50" width="120" height="80" as="geometry" />
        </mxCell>
        <mxCell id="FwbbOLDOYsbX4LEcrooZ-11" style="edgeStyle=orthogonalEdgeStyle;rounded=0;orthogonalLoop=1;jettySize=auto;html=1;entryX=0;entryY=0.5;entryDx=0;entryDy=0;exitX=0;exitY=0.5;exitDx=0;exitDy=0;" parent="1" source="u94LQi-UwwyeZnvFN672-12" target="FwbbOLDOYsbX4LEcrooZ-1" edge="1">
          <mxGeometry relative="1" as="geometry">
            <mxPoint x="200" y="80" as="targetPoint" />
            <Array as="points">
              <mxPoint x="278" y="340" />
              <mxPoint x="278" y="90" />
            </Array>
            <mxPoint x="297.5000000000002" y="210" as="sourcePoint" />
          </mxGeometry>
        </mxCell>
        <mxCell id="FwbbOLDOYsbX4LEcrooZ-14" value="no" style="edgeLabel;html=1;align=center;verticalAlign=middle;resizable=0;points=[];" parent="FwbbOLDOYsbX4LEcrooZ-11" vertex="1" connectable="0">
          <mxGeometry x="-0.6608" y="4" relative="1" as="geometry">
            <mxPoint as="offset" />
          </mxGeometry>
        </mxCell>
        <mxCell id="FwbbOLDOYsbX4LEcrooZ-4" value="Store ID, name, quantity" style="shape=dataStorage;whiteSpace=wrap;html=1;fixedSize=1;" parent="1" vertex="1">
          <mxGeometry x="580" y="479" width="100" height="80" as="geometry" />
        </mxCell>
        <mxCell id="FwbbOLDOYsbX4LEcrooZ-8" style="edgeStyle=orthogonalEdgeStyle;rounded=0;orthogonalLoop=1;jettySize=auto;html=1;exitX=0.5;exitY=1;exitDx=0;exitDy=0;entryX=0.5;entryY=0;entryDx=0;entryDy=0;" parent="1" target="FwbbOLDOYsbX4LEcrooZ-15" edge="1">
          <mxGeometry relative="1" as="geometry">
            <mxPoint x="390" y="380" as="sourcePoint" />
          </mxGeometry>
        </mxCell>
        <mxCell id="u94LQi-UwwyeZnvFN672-14" value="yes" style="edgeLabel;html=1;align=center;verticalAlign=middle;resizable=0;points=[];fontSize=12;" parent="FwbbOLDOYsbX4LEcrooZ-8" vertex="1" connectable="0">
          <mxGeometry x="-0.1409" y="-1" relative="1" as="geometry">
            <mxPoint y="1" as="offset" />
          </mxGeometry>
        </mxCell>
        <mxCell id="u94LQi-UwwyeZnvFN672-1" value="" style="edgeStyle=none;curved=1;rounded=0;orthogonalLoop=1;jettySize=auto;html=1;fontSize=12;startSize=8;endSize=8;" parent="1" source="FwbbOLDOYsbX4LEcrooZ-15" target="FwbbOLDOYsbX4LEcrooZ-4" edge="1">
          <mxGeometry relative="1" as="geometry" />
        </mxCell>
        <mxCell id="u94LQi-UwwyeZnvFN672-2" value="yes" style="edgeLabel;html=1;align=center;verticalAlign=middle;resizable=0;points=[];fontSize=12;" parent="u94LQi-UwwyeZnvFN672-1" vertex="1" connectable="0">
          <mxGeometry x="-0.4637" relative="1" as="geometry">
            <mxPoint as="offset" />
          </mxGeometry>
        </mxCell>
        <mxCell id="u94LQi-UwwyeZnvFN672-5" value="" style="edgeStyle=none;curved=1;rounded=0;orthogonalLoop=1;jettySize=auto;html=1;fontSize=12;startSize=8;endSize=8;" parent="1" source="FwbbOLDOYsbX4LEcrooZ-15" target="FwbbOLDOYsbX4LEcrooZ-19" edge="1">
          <mxGeometry relative="1" as="geometry" />
        </mxCell>
        <mxCell id="u94LQi-UwwyeZnvFN672-15" value="no" style="edgeLabel;html=1;align=center;verticalAlign=middle;resizable=0;points=[];fontSize=12;" parent="u94LQi-UwwyeZnvFN672-5" vertex="1" connectable="0">
          <mxGeometry x="0.0288" y="3" relative="1" as="geometry">
            <mxPoint as="offset" />
          </mxGeometry>
        </mxCell>
        <mxCell id="FwbbOLDOYsbX4LEcrooZ-15" value="If ID == DataBase.ID and name == DataBase.name and quantity &amp;gt; 0" style="rhombus;whiteSpace=wrap;html=1;" parent="1" vertex="1">
          <mxGeometry x="287.5" y="454" width="205" height="130" as="geometry" />
        </mxCell>
        <mxCell id="u94LQi-UwwyeZnvFN672-16" style="edgeStyle=none;curved=0;rounded=0;orthogonalLoop=1;jettySize=auto;html=1;entryX=0;entryY=0.5;entryDx=0;entryDy=0;fontSize=12;startSize=8;endSize=8;" parent="1" source="FwbbOLDOYsbX4LEcrooZ-19" target="FwbbOLDOYsbX4LEcrooZ-1" edge="1">
          <mxGeometry relative="1" as="geometry">
            <Array as="points">
              <mxPoint x="180" y="90" />
            </Array>
          </mxGeometry>
        </mxCell>
        <mxCell id="FwbbOLDOYsbX4LEcrooZ-19" value="show error message" style="rounded=0;whiteSpace=wrap;html=1;" parent="1" vertex="1">
          <mxGeometry x="120" y="489" width="120" height="60" as="geometry" />
        </mxCell>
        <mxCell id="u94LQi-UwwyeZnvFN672-13" value="" style="edgeStyle=none;curved=1;rounded=0;orthogonalLoop=1;jettySize=auto;html=1;fontSize=12;startSize=8;endSize=8;" parent="1" source="u94LQi-UwwyeZnvFN672-7" target="u94LQi-UwwyeZnvFN672-12" edge="1">
          <mxGeometry relative="1" as="geometry" />
        </mxCell>
        <mxCell id="u94LQi-UwwyeZnvFN672-7" value="Input ID, name, quanity" style="rounded=0;whiteSpace=wrap;html=1;" parent="1" vertex="1">
          <mxGeometry x="330" y="180" width="120" height="60" as="geometry" />
        </mxCell>
        <mxCell id="u94LQi-UwwyeZnvFN672-8" style="edgeStyle=none;curved=1;rounded=0;orthogonalLoop=1;jettySize=auto;html=1;entryX=0.5;entryY=0;entryDx=0;entryDy=0;fontSize=12;startSize=8;endSize=8;" parent="1" source="u94LQi-UwwyeZnvFN672-7" target="u94LQi-UwwyeZnvFN672-7" edge="1">
          <mxGeometry relative="1" as="geometry" />
        </mxCell>
        <mxCell id="u94LQi-UwwyeZnvFN672-12" value="If Add_button == 1" style="rhombus;whiteSpace=wrap;html=1;" parent="1" vertex="1">
          <mxGeometry x="297.5" y="300" width="185" height="80" as="geometry" />
        </mxCell>
      </root>
    </mxGraphModel>
  </diagram>
  <diagram id="ImbXE5bZMnuQ6ZMspwb5" name="Page-2">
    <mxGraphModel dx="1461" dy="759" grid="1" gridSize="10" guides="1" tooltips="1" connect="1" arrows="1" fold="1" page="0" pageScale="1" pageWidth="827" pageHeight="1169" math="0" shadow="0">
      <root>
        <mxCell id="0" />
        <mxCell id="1" parent="0" />
        <mxCell id="F5sQIU0hUr99Q4ovYO3f-22" value="" style="edgeStyle=none;curved=1;rounded=0;orthogonalLoop=1;jettySize=auto;html=1;fontSize=12;startSize=8;endSize=8;" parent="1" source="F5sQIU0hUr99Q4ovYO3f-4" target="F5sQIU0hUr99Q4ovYO3f-21" edge="1">
          <mxGeometry relative="1" as="geometry" />
        </mxCell>
        <mxCell id="F5sQIU0hUr99Q4ovYO3f-4" value="Start" style="ellipse;whiteSpace=wrap;html=1;" parent="1" vertex="1">
          <mxGeometry x="340" y="60" width="120" height="80" as="geometry" />
        </mxCell>
        <mxCell id="F5sQIU0hUr99Q4ovYO3f-24" value="" style="edgeStyle=none;curved=1;rounded=0;orthogonalLoop=1;jettySize=auto;html=1;fontSize=12;startSize=8;endSize=8;" parent="1" source="F5sQIU0hUr99Q4ovYO3f-9" target="F5sQIU0hUr99Q4ovYO3f-13" edge="1">
          <mxGeometry relative="1" as="geometry" />
        </mxCell>
        <mxCell id="F5sQIU0hUr99Q4ovYO3f-28" value="yes" style="edgeLabel;html=1;align=center;verticalAlign=middle;resizable=0;points=[];fontSize=12;" parent="F5sQIU0hUr99Q4ovYO3f-24" vertex="1" connectable="0">
          <mxGeometry x="-0.263" y="-2" relative="1" as="geometry">
            <mxPoint as="offset" />
          </mxGeometry>
        </mxCell>
        <mxCell id="F5sQIU0hUr99Q4ovYO3f-26" value="" style="edgeStyle=none;curved=1;rounded=0;orthogonalLoop=1;jettySize=auto;html=1;fontSize=12;startSize=8;endSize=8;" parent="1" source="F5sQIU0hUr99Q4ovYO3f-9" target="F5sQIU0hUr99Q4ovYO3f-25" edge="1">
          <mxGeometry relative="1" as="geometry" />
        </mxCell>
        <mxCell id="F5sQIU0hUr99Q4ovYO3f-27" value="no" style="edgeLabel;html=1;align=center;verticalAlign=middle;resizable=0;points=[];fontSize=12;" parent="F5sQIU0hUr99Q4ovYO3f-26" vertex="1" connectable="0">
          <mxGeometry x="-0.4658" y="-1" relative="1" as="geometry">
            <mxPoint as="offset" />
          </mxGeometry>
        </mxCell>
        <mxCell id="F5sQIU0hUr99Q4ovYO3f-9" value="If login == DataBase.login and password == DataBase.password" style="rhombus;whiteSpace=wrap;html=1;" parent="1" vertex="1">
          <mxGeometry x="323.75" y="300" width="152.5" height="110" as="geometry" />
        </mxCell>
        <mxCell id="F5sQIU0hUr99Q4ovYO3f-13" value="Output &quot;Access&quot;" style="rounded=0;whiteSpace=wrap;html=1;" parent="1" vertex="1">
          <mxGeometry x="340" y="460" width="120" height="60" as="geometry" />
        </mxCell>
        <mxCell id="F5sQIU0hUr99Q4ovYO3f-23" value="" style="edgeStyle=none;curved=1;rounded=0;orthogonalLoop=1;jettySize=auto;html=1;fontSize=12;startSize=8;endSize=8;" parent="1" source="F5sQIU0hUr99Q4ovYO3f-21" target="F5sQIU0hUr99Q4ovYO3f-9" edge="1">
          <mxGeometry relative="1" as="geometry" />
        </mxCell>
        <mxCell id="F5sQIU0hUr99Q4ovYO3f-21" value="Input login, password" style="rounded=0;whiteSpace=wrap;html=1;" parent="1" vertex="1">
          <mxGeometry x="340" y="180" width="120" height="60" as="geometry" />
        </mxCell>
        <mxCell id="F5sQIU0hUr99Q4ovYO3f-30" style="edgeStyle=none;curved=0;rounded=0;orthogonalLoop=1;jettySize=auto;html=1;fontSize=12;startSize=8;endSize=8;entryX=1;entryY=0.5;entryDx=0;entryDy=0;" parent="1" source="F5sQIU0hUr99Q4ovYO3f-25" target="F5sQIU0hUr99Q4ovYO3f-21" edge="1">
          <mxGeometry relative="1" as="geometry">
            <mxPoint x="590" y="200" as="targetPoint" />
            <Array as="points">
              <mxPoint x="590" y="210" />
            </Array>
          </mxGeometry>
        </mxCell>
        <mxCell id="F5sQIU0hUr99Q4ovYO3f-25" value="Error message" style="rounded=0;whiteSpace=wrap;html=1;" parent="1" vertex="1">
          <mxGeometry x="530" y="325" width="120" height="60" as="geometry" />
        </mxCell>
      </root>
    </mxGraphModel>
  </diagram>
  <diagram id="6522QLfLxu-ezAMezTMN" name="Page-3">
    <mxGraphModel dx="1461" dy="1159" grid="1" gridSize="10" guides="1" tooltips="1" connect="1" arrows="1" fold="1" page="0" pageScale="1" pageWidth="827" pageHeight="1169" math="0" shadow="0">
      <root>
        <mxCell id="0" />
        <mxCell id="1" parent="0" />
        <mxCell id="Nk0hUPB3aJDeYRBY-pYo-21" value="" style="edgeStyle=none;curved=1;rounded=0;orthogonalLoop=1;jettySize=auto;html=1;fontSize=12;startSize=8;endSize=8;" parent="1" source="Nk0hUPB3aJDeYRBY-pYo-3" target="Nk0hUPB3aJDeYRBY-pYo-20" edge="1">
          <mxGeometry relative="1" as="geometry" />
        </mxCell>
        <mxCell id="Nk0hUPB3aJDeYRBY-pYo-3" value="Start" style="ellipse;whiteSpace=wrap;html=1;" parent="1" vertex="1">
          <mxGeometry x="330" y="-50" width="120" height="80" as="geometry" />
        </mxCell>
        <mxCell id="Nk0hUPB3aJDeYRBY-pYo-4" style="edgeStyle=orthogonalEdgeStyle;rounded=0;orthogonalLoop=1;jettySize=auto;html=1;exitX=1;exitY=0.5;exitDx=0;exitDy=0;entryX=0.5;entryY=0;entryDx=0;entryDy=0;" parent="1" source="Nk0hUPB3aJDeYRBY-pYo-8" target="Nk0hUPB3aJDeYRBY-pYo-12" edge="1">
          <mxGeometry relative="1" as="geometry">
            <mxPoint x="570" y="210" as="targetPoint" />
          </mxGeometry>
        </mxCell>
        <mxCell id="Nk0hUPB3aJDeYRBY-pYo-5" value="yes" style="edgeLabel;html=1;align=center;verticalAlign=middle;resizable=0;points=[];" parent="Nk0hUPB3aJDeYRBY-pYo-4" vertex="1" connectable="0">
          <mxGeometry x="-0.1758" relative="1" as="geometry">
            <mxPoint as="offset" />
          </mxGeometry>
        </mxCell>
        <mxCell id="Nk0hUPB3aJDeYRBY-pYo-8" value="If length(name) &amp;lt; 50 and email contains &quot;@gmail.com&quot; and length(address) &amp;lt; 100" style="rhombus;whiteSpace=wrap;html=1;" parent="1" vertex="1">
          <mxGeometry x="297.5" y="280" width="185" height="80" as="geometry" />
        </mxCell>
        <mxCell id="Nk0hUPB3aJDeYRBY-pYo-11" style="edgeStyle=orthogonalEdgeStyle;rounded=0;orthogonalLoop=1;jettySize=auto;html=1;exitX=0;exitY=0.5;exitDx=0;exitDy=0;entryX=0.5;entryY=0;entryDx=0;entryDy=0;" parent="1" source="Nk0hUPB3aJDeYRBY-pYo-8" edge="1">
          <mxGeometry relative="1" as="geometry">
            <mxPoint x="270" y="390" as="targetPoint" />
          </mxGeometry>
        </mxCell>
        <mxCell id="Nk0hUPB3aJDeYRBY-pYo-23" value="no" style="edgeLabel;html=1;align=center;verticalAlign=middle;resizable=0;points=[];fontSize=12;" parent="Nk0hUPB3aJDeYRBY-pYo-11" vertex="1" connectable="0">
          <mxGeometry x="-0.0793" y="1" relative="1" as="geometry">
            <mxPoint as="offset" />
          </mxGeometry>
        </mxCell>
        <mxCell id="Nk0hUPB3aJDeYRBY-pYo-34" value="" style="edgeStyle=none;curved=1;rounded=0;orthogonalLoop=1;jettySize=auto;html=1;fontSize=12;startSize=8;endSize=8;" parent="1" source="Nk0hUPB3aJDeYRBY-pYo-12" target="Nk0hUPB3aJDeYRBY-pYo-29" edge="1">
          <mxGeometry relative="1" as="geometry" />
        </mxCell>
        <mxCell id="Nk0hUPB3aJDeYRBY-pYo-12" value="Select book, quantity" style="rounded=0;whiteSpace=wrap;html=1;" parent="1" vertex="1">
          <mxGeometry x="520" y="360" width="120" height="60" as="geometry" />
        </mxCell>
        <mxCell id="Nk0hUPB3aJDeYRBY-pYo-28" value="" style="edgeStyle=none;curved=0;rounded=0;orthogonalLoop=1;jettySize=auto;html=1;fontSize=12;startSize=8;endSize=8;entryX=0;entryY=0.5;entryDx=0;entryDy=0;exitX=0;exitY=0.5;exitDx=0;exitDy=0;" parent="1" source="Nk0hUPB3aJDeYRBY-pYo-19" target="Nk0hUPB3aJDeYRBY-pYo-3" edge="1">
          <mxGeometry relative="1" as="geometry">
            <mxPoint x="200" y="420" as="sourcePoint" />
            <mxPoint x="180" y="200" as="targetPoint" />
            <Array as="points">
              <mxPoint x="200" y="420" />
              <mxPoint x="200" y="-10" />
            </Array>
          </mxGeometry>
        </mxCell>
        <mxCell id="Nk0hUPB3aJDeYRBY-pYo-19" value="show error message" style="rounded=0;whiteSpace=wrap;html=1;" parent="1" vertex="1">
          <mxGeometry x="230" y="390" width="120" height="60" as="geometry" />
        </mxCell>
        <mxCell id="Nk0hUPB3aJDeYRBY-pYo-26" value="" style="edgeStyle=none;curved=1;rounded=0;orthogonalLoop=1;jettySize=auto;html=1;fontSize=12;startSize=8;endSize=8;" parent="1" source="Nk0hUPB3aJDeYRBY-pYo-20" target="Nk0hUPB3aJDeYRBY-pYo-8" edge="1">
          <mxGeometry relative="1" as="geometry" />
        </mxCell>
        <mxCell id="Nk0hUPB3aJDeYRBY-pYo-20" value="Input name, email,address" style="rounded=0;whiteSpace=wrap;html=1;" parent="1" vertex="1">
          <mxGeometry x="330" y="110" width="120" height="60" as="geometry" />
        </mxCell>
        <mxCell id="Nk0hUPB3aJDeYRBY-pYo-37" value="" style="edgeStyle=none;curved=1;rounded=0;orthogonalLoop=1;jettySize=auto;html=1;fontSize=12;startSize=8;endSize=8;" parent="1" source="Nk0hUPB3aJDeYRBY-pYo-29" target="Nk0hUPB3aJDeYRBY-pYo-36" edge="1">
          <mxGeometry relative="1" as="geometry" />
        </mxCell>
        <mxCell id="Nk0hUPB3aJDeYRBY-pYo-29" value="If quantity &amp;gt; 0" style="rhombus;whiteSpace=wrap;html=1;" parent="1" vertex="1">
          <mxGeometry x="487.5" y="480" width="185" height="80" as="geometry" />
        </mxCell>
        <mxCell id="Nk0hUPB3aJDeYRBY-pYo-30" style="edgeStyle=orthogonalEdgeStyle;rounded=0;orthogonalLoop=1;jettySize=auto;html=1;exitX=0;exitY=0.5;exitDx=0;exitDy=0;entryX=0.5;entryY=0;entryDx=0;entryDy=0;" parent="1" source="Nk0hUPB3aJDeYRBY-pYo-29" edge="1">
          <mxGeometry relative="1" as="geometry">
            <mxPoint x="460" y="590" as="targetPoint" />
          </mxGeometry>
        </mxCell>
        <mxCell id="Nk0hUPB3aJDeYRBY-pYo-31" value="no" style="edgeLabel;html=1;align=center;verticalAlign=middle;resizable=0;points=[];fontSize=12;" parent="Nk0hUPB3aJDeYRBY-pYo-30" vertex="1" connectable="0">
          <mxGeometry x="-0.0793" y="1" relative="1" as="geometry">
            <mxPoint as="offset" />
          </mxGeometry>
        </mxCell>
        <mxCell id="Nk0hUPB3aJDeYRBY-pYo-35" style="edgeStyle=none;curved=0;rounded=0;orthogonalLoop=1;jettySize=auto;html=1;fontSize=12;startSize=8;endSize=8;" parent="1" source="Nk0hUPB3aJDeYRBY-pYo-33" edge="1">
          <mxGeometry relative="1" as="geometry">
            <mxPoint x="200" y="420" as="targetPoint" />
            <Array as="points">
              <mxPoint x="200" y="620" />
            </Array>
          </mxGeometry>
        </mxCell>
        <mxCell id="Nk0hUPB3aJDeYRBY-pYo-33" value="show error message" style="rounded=0;whiteSpace=wrap;html=1;" parent="1" vertex="1">
          <mxGeometry x="420" y="590" width="120" height="60" as="geometry" />
        </mxCell>
        <mxCell id="Nk0hUPB3aJDeYRBY-pYo-36" value="Order book * quantity" style="rounded=0;whiteSpace=wrap;html=1;" parent="1" vertex="1">
          <mxGeometry x="730" y="490" width="120" height="60" as="geometry" />
        </mxCell>
      </root>
    </mxGraphModel>
  </diagram>
  <diagram id="CvFUxZLatxoQnuB7wsy0" name="Page-4">
    <mxGraphModel dx="2435" dy="1265" grid="1" gridSize="10" guides="1" tooltips="1" connect="1" arrows="1" fold="1" page="1" pageScale="1" pageWidth="827" pageHeight="1169" math="0" shadow="0">
      <root>
        <mxCell id="0" />
        <mxCell id="1" parent="0" />
        <mxCell id="ItfekyeqJydGyHnyr6Sj-14" value="" style="shape=ext;double=1;rounded=0;whiteSpace=wrap;html=1;" vertex="1" parent="1">
          <mxGeometry x="40" y="110" width="1000" height="700" as="geometry" />
        </mxCell>
        <mxCell id="ItfekyeqJydGyHnyr6Sj-15" value="" style="shape=ext;double=1;rounded=0;whiteSpace=wrap;html=1;strokeColor=#8F8F8F;fillColor=#878787;" vertex="1" parent="1">
          <mxGeometry x="160" y="332" width="290" height="180" as="geometry" />
        </mxCell>
        <mxCell id="ItfekyeqJydGyHnyr6Sj-16" value="" style="shape=ext;double=1;rounded=0;whiteSpace=wrap;html=1;strokeColor=#8F8F8F;fillColor=#878787;" vertex="1" parent="1">
          <mxGeometry x="520" y="322" width="370" height="220" as="geometry" />
        </mxCell>
        <mxCell id="ItfekyeqJydGyHnyr6Sj-18" value="" style="shape=ext;double=1;rounded=0;whiteSpace=wrap;html=1;" vertex="1" parent="1">
          <mxGeometry x="190" y="372" width="50" height="30" as="geometry" />
        </mxCell>
        <mxCell id="ItfekyeqJydGyHnyr6Sj-19" value="" style="shape=ext;double=1;rounded=0;whiteSpace=wrap;html=1;" vertex="1" parent="1">
          <mxGeometry x="250" y="372" width="50" height="30" as="geometry" />
        </mxCell>
        <mxCell id="ItfekyeqJydGyHnyr6Sj-20" value="" style="shape=ext;double=1;rounded=0;whiteSpace=wrap;html=1;" vertex="1" parent="1">
          <mxGeometry x="310" y="372" width="50" height="30" as="geometry" />
        </mxCell>
        <mxCell id="ItfekyeqJydGyHnyr6Sj-21" value="" style="shape=ext;double=1;rounded=0;whiteSpace=wrap;html=1;" vertex="1" parent="1">
          <mxGeometry x="374" y="372" width="50" height="30" as="geometry" />
        </mxCell>
        <mxCell id="ItfekyeqJydGyHnyr6Sj-22" value="" style="shape=ext;double=1;rounded=0;whiteSpace=wrap;html=1;" vertex="1" parent="1">
          <mxGeometry x="190" y="432" width="50" height="30" as="geometry" />
        </mxCell>
        <mxCell id="ItfekyeqJydGyHnyr6Sj-23" value="" style="shape=ext;double=1;rounded=0;whiteSpace=wrap;html=1;" vertex="1" parent="1">
          <mxGeometry x="250" y="432" width="50" height="30" as="geometry" />
        </mxCell>
        <mxCell id="ItfekyeqJydGyHnyr6Sj-24" value="" style="shape=ext;double=1;rounded=0;whiteSpace=wrap;html=1;" vertex="1" parent="1">
          <mxGeometry x="310" y="432" width="50" height="30" as="geometry" />
        </mxCell>
        <mxCell id="ItfekyeqJydGyHnyr6Sj-25" value="" style="shape=ext;double=1;rounded=0;whiteSpace=wrap;html=1;" vertex="1" parent="1">
          <mxGeometry x="374" y="432" width="50" height="30" as="geometry" />
        </mxCell>
        <mxCell id="ItfekyeqJydGyHnyr6Sj-26" value="" style="rounded=0;whiteSpace=wrap;html=1;" vertex="1" parent="1">
          <mxGeometry x="600" y="372" width="80" height="10" as="geometry" />
        </mxCell>
        <mxCell id="ItfekyeqJydGyHnyr6Sj-27" value="" style="rounded=0;whiteSpace=wrap;html=1;" vertex="1" parent="1">
          <mxGeometry x="600" y="402" width="80" height="10" as="geometry" />
        </mxCell>
        <mxCell id="ItfekyeqJydGyHnyr6Sj-28" value="" style="rounded=0;whiteSpace=wrap;html=1;" vertex="1" parent="1">
          <mxGeometry x="600" y="432" width="80" height="10" as="geometry" />
        </mxCell>
        <mxCell id="ItfekyeqJydGyHnyr6Sj-29" value="" style="rounded=0;whiteSpace=wrap;html=1;" vertex="1" parent="1">
          <mxGeometry x="600" y="462" width="80" height="10" as="geometry" />
        </mxCell>
        <mxCell id="ItfekyeqJydGyHnyr6Sj-40" value="&lt;font style=&quot;font-size: 8px;&quot;&gt;ID:&lt;/font&gt;" style="text;strokeColor=none;fillColor=none;align=left;verticalAlign=top;spacingLeft=4;spacingRight=4;overflow=hidden;rotatable=0;points=[[0,0.5],[1,0.5]];portConstraint=eastwest;whiteSpace=wrap;html=1;" vertex="1" parent="1">
          <mxGeometry x="570" y="364" width="60" height="26" as="geometry" />
        </mxCell>
        <mxCell id="ItfekyeqJydGyHnyr6Sj-41" value="&lt;font style=&quot;font-size: 8px;&quot;&gt;Name:&lt;/font&gt;" style="text;strokeColor=none;fillColor=none;align=left;verticalAlign=top;spacingLeft=4;spacingRight=4;overflow=hidden;rotatable=0;points=[[0,0.5],[1,0.5]];portConstraint=eastwest;whiteSpace=wrap;html=1;" vertex="1" parent="1">
          <mxGeometry x="560" y="394" width="60" height="26" as="geometry" />
        </mxCell>
        <mxCell id="ItfekyeqJydGyHnyr6Sj-42" value="&lt;font style=&quot;font-size: 8px;&quot;&gt;Grade:&lt;/font&gt;" style="text;strokeColor=none;fillColor=none;align=left;verticalAlign=top;spacingLeft=4;spacingRight=4;overflow=hidden;rotatable=0;points=[[0,0.5],[1,0.5]];portConstraint=eastwest;whiteSpace=wrap;html=1;" vertex="1" parent="1">
          <mxGeometry x="560" y="424" width="60" height="26" as="geometry" />
        </mxCell>
        <mxCell id="ItfekyeqJydGyHnyr6Sj-43" value="&lt;font style=&quot;font-size: 8px;&quot;&gt;Email:&lt;/font&gt;" style="text;strokeColor=none;fillColor=none;align=left;verticalAlign=top;spacingLeft=4;spacingRight=4;overflow=hidden;rotatable=0;points=[[0,0.5],[1,0.5]];portConstraint=eastwest;whiteSpace=wrap;html=1;" vertex="1" parent="1">
          <mxGeometry x="560" y="454" width="60" height="26" as="geometry" />
        </mxCell>
        <mxCell id="ItfekyeqJydGyHnyr6Sj-44" value="" style="swimlane;fontStyle=0;childLayout=stackLayout;horizontal=1;startSize=10;horizontalStack=0;resizeParent=1;resizeParentMax=0;resizeLast=0;collapsible=1;marginBottom=0;whiteSpace=wrap;html=1;direction=south;" vertex="1" parent="1">
          <mxGeometry x="730" y="357" width="97" height="130" as="geometry">
            <mxRectangle x="413" y="530" width="60" height="30" as="alternateBounds" />
          </mxGeometry>
        </mxCell>
        <mxCell id="ItfekyeqJydGyHnyr6Sj-45" value="Item 1" style="text;strokeColor=none;fillColor=none;align=left;verticalAlign=middle;spacingLeft=4;spacingRight=4;overflow=hidden;points=[[0,0.5],[1,0.5]];portConstraint=eastwest;rotatable=0;whiteSpace=wrap;html=1;" vertex="1" parent="ItfekyeqJydGyHnyr6Sj-44">
          <mxGeometry y="10" width="97" height="20" as="geometry" />
        </mxCell>
        <mxCell id="ItfekyeqJydGyHnyr6Sj-46" value="Item 2" style="text;strokeColor=none;fillColor=none;align=left;verticalAlign=middle;spacingLeft=4;spacingRight=4;overflow=hidden;points=[[0,0.5],[1,0.5]];portConstraint=eastwest;rotatable=0;whiteSpace=wrap;html=1;" vertex="1" parent="ItfekyeqJydGyHnyr6Sj-44">
          <mxGeometry y="30" width="97" height="20" as="geometry" />
        </mxCell>
        <mxCell id="ItfekyeqJydGyHnyr6Sj-47" value="Item 3" style="text;strokeColor=none;fillColor=none;align=left;verticalAlign=middle;spacingLeft=4;spacingRight=4;overflow=hidden;points=[[0,0.5],[1,0.5]];portConstraint=eastwest;rotatable=0;whiteSpace=wrap;html=1;" vertex="1" parent="ItfekyeqJydGyHnyr6Sj-44">
          <mxGeometry y="50" width="97" height="20" as="geometry" />
        </mxCell>
        <mxCell id="ItfekyeqJydGyHnyr6Sj-49" value="Item 4" style="text;strokeColor=none;fillColor=none;align=left;verticalAlign=middle;spacingLeft=4;spacingRight=4;overflow=hidden;points=[[0,0.5],[1,0.5]];portConstraint=eastwest;rotatable=0;whiteSpace=wrap;html=1;" vertex="1" parent="ItfekyeqJydGyHnyr6Sj-44">
          <mxGeometry y="70" width="97" height="20" as="geometry" />
        </mxCell>
        <mxCell id="ItfekyeqJydGyHnyr6Sj-50" value="Item 5" style="text;strokeColor=none;fillColor=none;align=left;verticalAlign=middle;spacingLeft=4;spacingRight=4;overflow=hidden;points=[[0,0.5],[1,0.5]];portConstraint=eastwest;rotatable=0;whiteSpace=wrap;html=1;" vertex="1" parent="ItfekyeqJydGyHnyr6Sj-44">
          <mxGeometry y="90" width="97" height="20" as="geometry" />
        </mxCell>
        <mxCell id="ItfekyeqJydGyHnyr6Sj-51" value="Item 6" style="text;strokeColor=none;fillColor=none;align=left;verticalAlign=middle;spacingLeft=4;spacingRight=4;overflow=hidden;points=[[0,0.5],[1,0.5]];portConstraint=eastwest;rotatable=0;whiteSpace=wrap;html=1;" vertex="1" parent="ItfekyeqJydGyHnyr6Sj-44">
          <mxGeometry y="110" width="97" height="20" as="geometry" />
        </mxCell>
        <mxCell id="ItfekyeqJydGyHnyr6Sj-54" value="" style="shape=ext;double=1;rounded=0;whiteSpace=wrap;html=1;" vertex="1" parent="1">
          <mxGeometry x="1390" y="110" width="1000" height="700" as="geometry" />
        </mxCell>
        <mxCell id="ItfekyeqJydGyHnyr6Sj-55" value="" style="shape=ext;double=1;rounded=0;whiteSpace=wrap;html=1;strokeColor=#8F8F8F;fillColor=#878787;" vertex="1" parent="1">
          <mxGeometry x="1550" y="230" width="290" height="180" as="geometry" />
        </mxCell>
        <mxCell id="ItfekyeqJydGyHnyr6Sj-56" value="" style="shape=ext;double=1;rounded=0;whiteSpace=wrap;html=1;strokeColor=#8F8F8F;fillColor=#878787;" vertex="1" parent="1">
          <mxGeometry x="1920" y="220" width="200" height="210" as="geometry" />
        </mxCell>
        <mxCell id="ItfekyeqJydGyHnyr6Sj-57" value="" style="shape=ext;double=1;rounded=0;whiteSpace=wrap;html=1;strokeColor=#8F8F8F;fillColor=#878787;" vertex="1" parent="1">
          <mxGeometry x="1730" y="494" width="280" height="180" as="geometry" />
        </mxCell>
        <mxCell id="ItfekyeqJydGyHnyr6Sj-58" value="" style="shape=ext;double=1;rounded=0;whiteSpace=wrap;html=1;" vertex="1" parent="1">
          <mxGeometry x="1580" y="270" width="50" height="30" as="geometry" />
        </mxCell>
        <mxCell id="ItfekyeqJydGyHnyr6Sj-59" value="" style="shape=ext;double=1;rounded=0;whiteSpace=wrap;html=1;" vertex="1" parent="1">
          <mxGeometry x="1640" y="270" width="50" height="30" as="geometry" />
        </mxCell>
        <mxCell id="ItfekyeqJydGyHnyr6Sj-60" value="" style="shape=ext;double=1;rounded=0;whiteSpace=wrap;html=1;" vertex="1" parent="1">
          <mxGeometry x="1700" y="270" width="50" height="30" as="geometry" />
        </mxCell>
        <mxCell id="ItfekyeqJydGyHnyr6Sj-61" value="" style="shape=ext;double=1;rounded=0;whiteSpace=wrap;html=1;" vertex="1" parent="1">
          <mxGeometry x="1764" y="270" width="50" height="30" as="geometry" />
        </mxCell>
        <mxCell id="ItfekyeqJydGyHnyr6Sj-62" value="" style="shape=ext;double=1;rounded=0;whiteSpace=wrap;html=1;" vertex="1" parent="1">
          <mxGeometry x="1580" y="330" width="50" height="30" as="geometry" />
        </mxCell>
        <mxCell id="ItfekyeqJydGyHnyr6Sj-63" value="" style="shape=ext;double=1;rounded=0;whiteSpace=wrap;html=1;" vertex="1" parent="1">
          <mxGeometry x="1640" y="330" width="50" height="30" as="geometry" />
        </mxCell>
        <mxCell id="ItfekyeqJydGyHnyr6Sj-64" value="" style="shape=ext;double=1;rounded=0;whiteSpace=wrap;html=1;" vertex="1" parent="1">
          <mxGeometry x="1700" y="330" width="50" height="30" as="geometry" />
        </mxCell>
        <mxCell id="ItfekyeqJydGyHnyr6Sj-65" value="" style="shape=ext;double=1;rounded=0;whiteSpace=wrap;html=1;" vertex="1" parent="1">
          <mxGeometry x="1764" y="330" width="50" height="30" as="geometry" />
        </mxCell>
        <mxCell id="ItfekyeqJydGyHnyr6Sj-66" value="" style="rounded=0;whiteSpace=wrap;html=1;" vertex="1" parent="1">
          <mxGeometry x="1990" y="270" width="80" height="10" as="geometry" />
        </mxCell>
        <mxCell id="ItfekyeqJydGyHnyr6Sj-67" value="" style="rounded=0;whiteSpace=wrap;html=1;" vertex="1" parent="1">
          <mxGeometry x="1990" y="300" width="80" height="10" as="geometry" />
        </mxCell>
        <mxCell id="ItfekyeqJydGyHnyr6Sj-68" value="" style="rounded=0;whiteSpace=wrap;html=1;" vertex="1" parent="1">
          <mxGeometry x="1990" y="330" width="80" height="10" as="geometry" />
        </mxCell>
        <mxCell id="ItfekyeqJydGyHnyr6Sj-69" value="" style="rounded=0;whiteSpace=wrap;html=1;" vertex="1" parent="1">
          <mxGeometry x="1990" y="360" width="80" height="10" as="geometry" />
        </mxCell>
        <mxCell id="ItfekyeqJydGyHnyr6Sj-70" value="&lt;font style=&quot;font-size: 8px;&quot;&gt;ID:&lt;/font&gt;" style="text;strokeColor=none;fillColor=none;align=left;verticalAlign=top;spacingLeft=4;spacingRight=4;overflow=hidden;rotatable=0;points=[[0,0.5],[1,0.5]];portConstraint=eastwest;whiteSpace=wrap;html=1;" vertex="1" parent="1">
          <mxGeometry x="1960" y="262" width="60" height="26" as="geometry" />
        </mxCell>
        <mxCell id="ItfekyeqJydGyHnyr6Sj-71" value="&lt;font style=&quot;font-size: 8px;&quot;&gt;Name:&lt;/font&gt;" style="text;strokeColor=none;fillColor=none;align=left;verticalAlign=top;spacingLeft=4;spacingRight=4;overflow=hidden;rotatable=0;points=[[0,0.5],[1,0.5]];portConstraint=eastwest;whiteSpace=wrap;html=1;" vertex="1" parent="1">
          <mxGeometry x="1950" y="292" width="60" height="26" as="geometry" />
        </mxCell>
        <mxCell id="ItfekyeqJydGyHnyr6Sj-72" value="&lt;font style=&quot;font-size: 8px;&quot;&gt;Grade:&lt;/font&gt;" style="text;strokeColor=none;fillColor=none;align=left;verticalAlign=top;spacingLeft=4;spacingRight=4;overflow=hidden;rotatable=0;points=[[0,0.5],[1,0.5]];portConstraint=eastwest;whiteSpace=wrap;html=1;" vertex="1" parent="1">
          <mxGeometry x="1950" y="322" width="60" height="26" as="geometry" />
        </mxCell>
        <mxCell id="ItfekyeqJydGyHnyr6Sj-73" value="&lt;font style=&quot;font-size: 8px;&quot;&gt;Email:&lt;/font&gt;" style="text;strokeColor=none;fillColor=none;align=left;verticalAlign=top;spacingLeft=4;spacingRight=4;overflow=hidden;rotatable=0;points=[[0,0.5],[1,0.5]];portConstraint=eastwest;whiteSpace=wrap;html=1;" vertex="1" parent="1">
          <mxGeometry x="1950" y="352" width="60" height="26" as="geometry" />
        </mxCell>
        <mxCell id="ItfekyeqJydGyHnyr6Sj-74" value="" style="swimlane;fontStyle=0;childLayout=stackLayout;horizontal=1;startSize=10;horizontalStack=0;resizeParent=1;resizeParentMax=0;resizeLast=0;collapsible=1;marginBottom=0;whiteSpace=wrap;html=1;direction=south;" vertex="1" parent="1">
          <mxGeometry x="1764" y="520" width="97" height="130" as="geometry">
            <mxRectangle x="413" y="530" width="60" height="30" as="alternateBounds" />
          </mxGeometry>
        </mxCell>
        <mxCell id="ItfekyeqJydGyHnyr6Sj-75" value="Item 1" style="text;strokeColor=none;fillColor=none;align=left;verticalAlign=middle;spacingLeft=4;spacingRight=4;overflow=hidden;points=[[0,0.5],[1,0.5]];portConstraint=eastwest;rotatable=0;whiteSpace=wrap;html=1;" vertex="1" parent="ItfekyeqJydGyHnyr6Sj-74">
          <mxGeometry y="10" width="97" height="20" as="geometry" />
        </mxCell>
        <mxCell id="ItfekyeqJydGyHnyr6Sj-76" value="Item 2" style="text;strokeColor=none;fillColor=none;align=left;verticalAlign=middle;spacingLeft=4;spacingRight=4;overflow=hidden;points=[[0,0.5],[1,0.5]];portConstraint=eastwest;rotatable=0;whiteSpace=wrap;html=1;" vertex="1" parent="ItfekyeqJydGyHnyr6Sj-74">
          <mxGeometry y="30" width="97" height="20" as="geometry" />
        </mxCell>
        <mxCell id="ItfekyeqJydGyHnyr6Sj-77" value="Item 3" style="text;strokeColor=none;fillColor=none;align=left;verticalAlign=middle;spacingLeft=4;spacingRight=4;overflow=hidden;points=[[0,0.5],[1,0.5]];portConstraint=eastwest;rotatable=0;whiteSpace=wrap;html=1;" vertex="1" parent="ItfekyeqJydGyHnyr6Sj-74">
          <mxGeometry y="50" width="97" height="20" as="geometry" />
        </mxCell>
        <mxCell id="ItfekyeqJydGyHnyr6Sj-78" value="Item 4" style="text;strokeColor=none;fillColor=none;align=left;verticalAlign=middle;spacingLeft=4;spacingRight=4;overflow=hidden;points=[[0,0.5],[1,0.5]];portConstraint=eastwest;rotatable=0;whiteSpace=wrap;html=1;" vertex="1" parent="ItfekyeqJydGyHnyr6Sj-74">
          <mxGeometry y="70" width="97" height="20" as="geometry" />
        </mxCell>
        <mxCell id="ItfekyeqJydGyHnyr6Sj-79" value="Item 5" style="text;strokeColor=none;fillColor=none;align=left;verticalAlign=middle;spacingLeft=4;spacingRight=4;overflow=hidden;points=[[0,0.5],[1,0.5]];portConstraint=eastwest;rotatable=0;whiteSpace=wrap;html=1;" vertex="1" parent="ItfekyeqJydGyHnyr6Sj-74">
          <mxGeometry y="90" width="97" height="20" as="geometry" />
        </mxCell>
        <mxCell id="ItfekyeqJydGyHnyr6Sj-80" value="Item 6" style="text;strokeColor=none;fillColor=none;align=left;verticalAlign=middle;spacingLeft=4;spacingRight=4;overflow=hidden;points=[[0,0.5],[1,0.5]];portConstraint=eastwest;rotatable=0;whiteSpace=wrap;html=1;" vertex="1" parent="ItfekyeqJydGyHnyr6Sj-74">
          <mxGeometry y="110" width="97" height="20" as="geometry" />
        </mxCell>
        <mxCell id="ItfekyeqJydGyHnyr6Sj-81" value="" style="rounded=1;whiteSpace=wrap;html=1;strokeWidth=2;fillWeight=4;hachureGap=8;hachureAngle=45;fillColor=#1ba1e2;sketch=1;" vertex="1" parent="1">
          <mxGeometry x="1880" y="540" width="80" height="70" as="geometry" />
        </mxCell>
        <mxCell id="ItfekyeqJydGyHnyr6Sj-90" value="" style="shape=crossbar;whiteSpace=wrap;html=1;rounded=1;" vertex="1" parent="1">
          <mxGeometry x="40" y="850" width="1000" height="20" as="geometry" />
        </mxCell>
        <mxCell id="ItfekyeqJydGyHnyr6Sj-98" value="1000px" style="text;html=1;align=center;verticalAlign=middle;resizable=0;points=[];autosize=1;strokeColor=none;fillColor=none;" vertex="1" parent="1">
          <mxGeometry x="500" y="848" width="60" height="30" as="geometry" />
        </mxCell>
        <mxCell id="ItfekyeqJydGyHnyr6Sj-100" value="" style="shape=crossbar;whiteSpace=wrap;html=1;rounded=1;direction=south;" vertex="1" parent="1">
          <mxGeometry x="1060" y="110" width="20" height="700" as="geometry" />
        </mxCell>
        <mxCell id="ItfekyeqJydGyHnyr6Sj-101" value="700px" style="text;html=1;align=center;verticalAlign=middle;resizable=0;points=[];autosize=1;strokeColor=none;fillColor=none;" vertex="1" parent="1">
          <mxGeometry x="1040" y="418" width="60" height="30" as="geometry" />
        </mxCell>
        <mxCell id="ItfekyeqJydGyHnyr6Sj-111" value="" style="shape=crossbar;whiteSpace=wrap;html=1;rounded=1;" vertex="1" parent="1">
          <mxGeometry x="1390" y="840" width="1010" height="20" as="geometry" />
        </mxCell>
        <mxCell id="ItfekyeqJydGyHnyr6Sj-112" value="1000px" style="text;html=1;align=center;verticalAlign=middle;resizable=0;points=[];autosize=1;strokeColor=none;fillColor=none;" vertex="1" parent="1">
          <mxGeometry x="1860" y="838" width="60" height="30" as="geometry" />
        </mxCell>
        <mxCell id="ItfekyeqJydGyHnyr6Sj-113" value="" style="shape=crossbar;whiteSpace=wrap;html=1;rounded=1;direction=south;" vertex="1" parent="1">
          <mxGeometry x="2420" y="110" width="20" height="700" as="geometry" />
        </mxCell>
        <mxCell id="ItfekyeqJydGyHnyr6Sj-114" value="700px" style="text;html=1;align=center;verticalAlign=middle;resizable=0;points=[];autosize=1;strokeColor=none;fillColor=none;" vertex="1" parent="1">
          <mxGeometry x="2400" y="418" width="60" height="30" as="geometry" />
        </mxCell>
        <mxCell id="ItfekyeqJydGyHnyr6Sj-115" value="100px" style="shape=crossbar;whiteSpace=wrap;html=1;rounded=1;" vertex="1" parent="1">
          <mxGeometry x="1880" y="630" width="80" height="20" as="geometry" />
        </mxCell>
        <mxCell id="ItfekyeqJydGyHnyr6Sj-116" value="100px" style="shape=crossbar;whiteSpace=wrap;html=1;rounded=1;direction=south;" vertex="1" parent="1">
          <mxGeometry x="1980" y="542" width="20" height="68" as="geometry" />
        </mxCell>
      </root>
    </mxGraphModel>
  </diagram>
</mxfile>
